<?xml version="1.0" standalone="no"?>
<!DOCTYPE svg PUBLIC "-//W3C//DTD SVG 20010904//EN"
 "http://www.w3.org/TR/2001/REC-SVG-20010904/DTD/svg10.dtd">
<svg version="1.0" xmlns="http://www.w3.org/2000/svg"
 width="901.000000pt" height="901.000000pt" viewBox="0 0 901.000000 901.000000"
 preserveAspectRatio="xMidYMid meet">
<metadata>
Created by potrace 1.14, written by Peter Selinger 2001-2017
</metadata>
<g transform="translate(0.000000,901.000000) scale(0.100000,-0.100000)"
fill="#000000" stroke="none">
<path d="M48 8971 l-33 -29 -3 -4424 c-1 -3226 1 -4430 9 -4450 6 -15 23 -35
38 -45 25 -17 208 -18 4453 -18 l4428 0 32 33 33 32 0 4436 0 4436 -33 29 -32
29 -4430 0 -4430 0 -32 -29z m8260 -198 l472 -6 0 -1669 c0 -917 -3 -1668 -6
-1668 -3 0 -522 234 -1152 521 -1141 518 -1147 521 -1210 520 -129 -3 -168 48
479 -632 l583 -614 496 -328 c432 -287 546 -365 505 -345 -5 3 -213 96 -460
207 l-451 203 -769 800 c-631 657 -784 821 -848 912 -43 61 -82 117 -86 124
-10 17 -1275 -221 -1306 -247 -94 -74 -864 -775 -858 -781 4 -3 231 -112 503
-240 272 -128 1136 -536 1919 -907 784 -370 1426 -671 1428 -669 3 3 -672 965
-1215 1731 -34 48 -34 49 -5 20 23 -22 1087 -1257 2052 -2379 9 -10 -1141 560
-2554 1267 l-2571 1285 -1502 -734 c-826 -404 -1504 -734 -1507 -734 -3 0 -5
983 -5 2185 l0 2185 3798 0 c2088 0 4010 -3 4270 -7z m-733 -4061 c382 -271
539 -383 620 -441 59 -43 60 -45 -77 142 -59 81 -106 147 -103 147 2 0 138
-100 302 -223 164 -122 335 -249 380 -282 l82 -60 1 -1882 0 -1883 -505 0
c-338 0 -505 3 -505 10 0 6 77 238 170 517 94 278 170 511 168 518 -2 6 -849
769 -1883 1695 -1034 925 -1891 1693 -1905 1707 -21 20 540 -252 1205 -584 88
-44 343 -162 567 -263 l406 -182 123 -184 c102 -154 127 -185 153 -193 298
-84 614 -187 632 -205 12 -11 160 -212 329 -446 170 -234 310 -427 312 -430 8
-9 20 22 167 418 l148 398 159 99 c138 85 157 100 147 114 -11 12 -1298 1533
-1462 1726 -64 75 -85 88 369 -233z m-5045 174 c0 -2 -142 -126 -315 -275
-173 -150 -315 -278 -315 -286 0 -8 50 -252 110 -543 61 -290 110 -533 110
-540 0 -7 -271 -304 -602 -660 -332 -356 -609 -655 -617 -665 -12 -15 -5 -57
53 -330 l68 -312 -277 -522 -277 -523 -69 0 c-38 0 -69 3 -69 8 1 4 133 245
294 536 l293 529 -29 126 c-17 69 -49 211 -73 314 l-43 188 590 642 c325 353
599 651 609 663 19 20 17 30 -91 569 -60 301 -111 558 -112 571 -3 19 48 55
377 268 390 252 385 249 385 242z m1212 -1322 l318 -58 1697 -1636 1698 -1635
-120 -3 -120 -3 -355 358 c-196 197 -548 553 -783 791 l-428 434 -150 8 c-124
7 -155 12 -172 27 -73 63 -1890 1713 -1922 1745 l-40 40 30 -5 c17 -3 173 -31
347 -63z m1353 -1996 c231 -162 484 -339 561 -394 152 -106 109 -63 902 -916
l26 -28 -500 0 -499 0 -480 826 c-264 455 -482 831 -484 837 -2 6 9 1 25 -10
16 -11 218 -153 449 -315z m-749 -345 c225 -335 466 -693 537 -798 l128 -190
-207 -3 c-188 -2 -210 -1 -225 15 -23 25 -819 1190 -819 1199 0 19 164 393
170 389 4 -3 191 -278 416 -612z"/>
</g>
</svg>
